# WaveFront *.obj file (generated by Autodesk ATF)

mtllib adaptateur_jouet_moteur.mtl

g Corps1

v 0.050000 -0.500000 1.600000
v 0.050000 -0.250050 1.600000
v 0.050000 -0.250050 2.200000
v 0.050000 -0.500000 2.200000
v -0.050000 -0.500000 1.600000
v -0.050000 -0.500000 2.200000
v -0.050000 -0.250050 1.600000
v -0.050000 -0.250050 2.200000
v -0.050000 0.250050 1.600000
v -0.110244 0.229938 1.600000
v -0.163649 0.195561 1.600000
v -0.206901 0.149053 1.600000
v -0.237319 0.093298 1.600000
v -0.253015 0.031756 1.600000
v -0.253015 -0.031756 1.600000
v -0.237319 -0.093298 1.600000
v -0.206901 -0.149053 1.600000
v -0.163649 -0.195561 1.600000
v -0.110244 -0.229938 1.600000
v -0.110244 -0.229938 2.200000
v -0.163649 -0.195561 2.200000
v -0.206901 -0.149053 2.200000
v -0.237319 -0.093298 2.200000
v -0.253015 -0.031756 2.200000
v -0.253015 0.031756 2.200000
v -0.237319 0.093298 2.200000
v -0.206901 0.149053 2.200000
v -0.163649 0.195561 2.200000
v -0.110244 0.229938 2.200000
v -0.050000 0.250050 2.200000
v -0.050000 0.500000 1.600000
v -0.050000 0.500000 2.200000
v 0.050000 0.500000 1.600000
v 0.050000 0.500000 2.200000
v 0.050000 0.250050 1.600000
v 0.050000 0.250050 2.200000
v 0.110244 -0.229938 1.600000
v 0.163649 -0.195561 1.600000
v 0.206901 -0.149053 1.600000
v 0.237319 -0.093298 1.600000
v 0.253015 -0.031756 1.600000
v 0.253015 0.031756 1.600000
v 0.237319 0.093298 1.600000
v 0.206901 0.149053 1.600000
v 0.163649 0.195561 1.600000
v 0.110244 0.229938 1.600000
v 0.110244 0.229938 2.200000
v 0.163649 0.195561 2.200000
v 0.206901 0.149053 2.200000
v 0.237319 0.093298 2.200000
v 0.253015 0.031756 2.200000
v 0.253015 -0.031756 2.200000
v 0.237319 -0.093298 2.200000
v 0.206901 -0.149053 2.200000
v 0.163649 -0.195561 2.200000
v 0.110244 -0.229938 2.200000
v 0.193500 -0.193994 0.000000
v 0.136798 -0.237407 0.000000
v 0.070804 -0.264694 0.000000
v 0.000000 -0.274000 0.000000
v -0.070804 -0.264694 0.000000
v -0.136798 -0.237407 0.000000
v -0.193500 -0.193994 0.000000
v -0.193500 -0.193994 0.600000
v -0.136798 -0.237407 0.600000
v -0.070804 -0.264694 0.600000
v 0.000000 -0.274000 0.600000
v 0.070804 -0.264694 0.600000
v 0.136798 -0.237407 0.600000
v 0.193500 -0.193994 0.600000
v -0.193500 0.193994 0.000000
v -0.193500 0.193994 0.600000
v -0.136798 0.237407 0.000000
v -0.070804 0.264694 0.000000
v 0.000000 0.274000 0.000000
v 0.070804 0.264694 0.000000
v 0.136798 0.237407 0.000000
v 0.193500 0.193994 0.000000
v 0.193500 0.193994 0.600000
v 0.136798 0.237407 0.600000
v 0.070804 0.264694 0.600000
v 0.000000 0.274000 0.600000
v -0.070804 0.264694 0.600000
v -0.136798 0.237407 0.600000
v -0.750000 -0.000000 1.600000
v -0.737947 0.133918 1.600000
v -0.702176 0.263531 1.600000
v -0.643837 0.384674 1.600000
v -0.564804 0.493454 1.600000
v -0.467617 0.586374 1.600000
v -0.355401 0.660447 1.600000
v -0.231763 0.713292 1.600000
v -0.100675 0.743212 1.600000
v 0.033649 0.749245 1.600000
v 0.166891 0.731196 1.600000
v 0.294769 0.689646 1.600000
v 0.413173 0.625930 1.600000
v 0.518297 0.542096 1.600000
v 0.606763 0.440839 1.600000
v 0.675727 0.325413 1.600000
v 0.722972 0.199528 1.600000
v 0.746981 0.067229 1.600000
v 0.746981 -0.067229 1.600000
v 0.722972 -0.199528 1.600000
v 0.675727 -0.325413 1.600000
v 0.606763 -0.440839 1.600000
v 0.518297 -0.542096 1.600000
v 0.413173 -0.625930 1.600000
v 0.294769 -0.689646 1.600000
v 0.166891 -0.731196 1.600000
v 0.033649 -0.749245 1.600000
v -0.100675 -0.743212 1.600000
v -0.231763 -0.713292 1.600000
v -0.355401 -0.660447 1.600000
v -0.467617 -0.586374 1.600000
v -0.564804 -0.493454 1.600000
v -0.643837 -0.384674 1.600000
v -0.702176 -0.263531 1.600000
v -0.737947 -0.133918 1.600000
v -0.750000 -0.000000 0.000000
v -0.737947 -0.133918 0.000000
v -0.702176 -0.263531 0.000000
v -0.643837 -0.384674 0.000000
v -0.564804 -0.493454 0.000000
v -0.467617 -0.586374 0.000000
v -0.355401 -0.660447 0.000000
v -0.231763 -0.713292 0.000000
v -0.100675 -0.743212 0.000000
v 0.033649 -0.749245 0.000000
v 0.166891 -0.731196 0.000000
v 0.294769 -0.689646 0.000000
v 0.413173 -0.625930 0.000000
v 0.518297 -0.542096 0.000000
v 0.606763 -0.440839 0.000000
v 0.675727 -0.325413 0.000000
v 0.722972 -0.199528 0.000000
v 0.746981 -0.067229 0.000000
v 0.746981 0.067229 0.000000
v 0.722972 0.199528 0.000000
v 0.675727 0.325413 0.000000
v 0.606763 0.440839 0.000000
v 0.518297 0.542096 0.000000
v 0.413173 0.625930 0.000000
v 0.294769 0.689646 0.000000
v 0.166891 0.731196 0.000000
v 0.033649 0.749245 0.000000
v -0.100675 0.743212 0.000000
v -0.231763 0.713292 0.000000
v -0.355401 0.660447 0.000000
v -0.467617 0.586374 0.000000
v -0.564804 0.493454 0.000000
v -0.643837 0.384674 0.000000
v -0.702176 0.263531 0.000000
v -0.737947 0.133918 0.000000
vt -0.000000 0.000000 0.000000
vt 0.249950 0.000000 0.000000
vt -0.000000 0.600000 0.000000
vt 0.249950 0.600000 0.000000
vt -0.000000 0.000000 0.000000
vt 0.100000 0.000000 0.000000
vt -0.000000 0.600000 0.000000
vt 0.100000 0.600000 0.000000
vt -0.000000 0.000000 0.000000
vt 0.249950 0.000000 0.000000
vt -0.000000 0.600000 0.000000
vt 0.249950 0.600000 0.000000
vt -0.600000 -0.350227 0.000000
vt -0.000000 -0.350227 0.000000
vt -0.600000 -0.286549 0.000000
vt -0.000000 -0.286549 0.000000
vt -0.600000 -0.222872 0.000000
vt -0.000000 -0.222872 0.000000
vt -0.600000 -0.159194 0.000000
vt -0.000000 -0.159194 0.000000
vt -0.600000 -0.095516 0.000000
vt -0.000000 -0.095516 0.000000
vt -0.600000 -0.031839 0.000000
vt -0.000000 -0.031839 0.000000
vt -0.600000 0.031839 0.000000
vt -0.000000 0.031839 0.000000
vt -0.600000 0.095516 0.000000
vt -0.000000 0.095516 0.000000
vt -0.600000 0.159194 0.000000
vt -0.000000 0.159194 0.000000
vt -0.600000 0.222872 0.000000
vt -0.000000 0.222872 0.000000
vt -0.600000 0.286549 0.000000
vt -0.000000 0.286549 0.000000
vt -0.600000 0.350227 0.000000
vt -0.000000 0.350227 0.000000
vt -0.000000 0.000000 0.000000
vt 0.249950 0.000000 0.000000
vt -0.000000 0.600000 0.000000
vt 0.249950 0.600000 0.000000
vt 0.000000 0.000000 0.000000
vt 0.100000 0.000000 0.000000
vt 0.000000 0.600000 0.000000
vt 0.100000 0.600000 0.000000
vt 0.000000 0.000000 0.000000
vt 0.249950 0.000000 0.000000
vt -0.000000 0.600000 0.000000
vt 0.249950 0.600000 0.000000
vt -0.600000 0.450879 0.000000
vt -0.000000 0.450879 0.000000
vt -0.600000 0.514557 0.000000
vt -0.000000 0.514557 0.000000
vt -0.600000 0.578234 0.000000
vt -0.000000 0.578234 0.000000
vt -0.600000 0.641912 0.000000
vt -0.000000 0.641912 0.000000
vt -0.600000 0.705590 0.000000
vt -0.000000 0.705590 0.000000
vt -0.600000 0.769267 0.000000
vt -0.000000 0.769267 0.000000
vt -0.600000 0.832945 0.000000
vt -0.000000 0.832945 0.000000
vt -0.600000 0.896623 0.000000
vt -0.000000 0.896623 0.000000
vt -0.600000 0.960300 0.000000
vt -0.000000 0.960300 0.000000
vt -0.600000 1.023978 0.000000
vt -0.000000 1.023978 0.000000
vt -0.600000 1.087655 0.000000
vt -0.000000 1.087655 0.000000
vt -0.600000 1.151333 0.000000
vt -0.000000 1.151333 0.000000
vt -0.110244 0.229938 0.000000
vt -0.110244 -0.229938 0.000000
vt -0.050000 0.250050 0.000000
vt -0.050000 -0.250050 0.000000
vt 0.050000 -0.250050 0.000000
vt 0.050000 -0.500000 0.000000
vt -0.050000 -0.500000 0.000000
vt -0.163649 -0.195561 0.000000
vt -0.163649 0.195561 0.000000
vt -0.206901 -0.149053 0.000000
vt -0.206901 0.149053 0.000000
vt -0.237319 -0.093298 0.000000
vt -0.237319 0.093298 0.000000
vt -0.253015 -0.031756 0.000000
vt -0.253015 0.031756 0.000000
vt 0.050000 0.250050 0.000000
vt 0.110244 -0.229938 0.000000
vt 0.110244 0.229938 0.000000
vt 0.163649 -0.195561 0.000000
vt 0.163649 0.195561 0.000000
vt 0.206901 -0.149053 0.000000
vt 0.206901 0.149053 0.000000
vt 0.237319 -0.093298 0.000000
vt 0.237319 0.093298 0.000000
vt 0.253015 -0.031756 0.000000
vt 0.253015 0.031756 0.000000
vt 0.050000 0.500000 0.000000
vt -0.050000 0.500000 0.000000
vt 0.600000 -0.215549 0.000000
vt 0.000000 -0.215549 0.000000
vt 0.600000 -0.287165 0.000000
vt 0.000000 -0.287165 0.000000
vt 0.600000 -0.358782 0.000000
vt 0.000000 -0.358782 0.000000
vt 0.600000 -0.430398 0.000000
vt 0.000000 -0.430398 0.000000
vt 0.600000 -0.502015 0.000000
vt 0.000000 -0.502015 0.000000
vt 0.600000 -0.573631 0.000000
vt 0.000000 -0.573631 0.000000
vt 0.600000 -0.645248 0.000000
vt 0.000000 -0.645248 0.000000
vt -0.387988 0.000000 0.000000
vt -0.000000 0.000000 0.000000
vt -0.387988 0.600000 0.000000
vt -0.000000 0.600000 0.000000
vt 0.600000 0.645248 0.000000
vt 0.000000 0.645248 0.000000
vt 0.600000 0.573631 0.000000
vt 0.000000 0.573631 0.000000
vt 0.600000 0.502015 0.000000
vt 0.000000 0.502015 0.000000
vt 0.600000 0.430398 0.000000
vt 0.000000 0.430398 0.000000
vt 0.600000 0.358782 0.000000
vt 0.000000 0.358782 0.000000
vt 0.600000 0.287165 0.000000
vt 0.000000 0.287165 0.000000
vt 0.600000 0.215549 0.000000
vt 0.000000 0.215549 0.000000
vt -0.387988 0.000000 0.000000
vt 0.000000 0.000000 0.000000
vt -0.387988 0.600000 0.000000
vt 0.000000 0.600000 0.000000
vt -0.193500 0.193994 0.000000
vt -0.193500 -0.193994 0.000000
vt -0.136798 0.237407 0.000000
vt -0.136798 -0.237407 0.000000
vt -0.070804 0.264694 0.000000
vt -0.070804 -0.264694 0.000000
vt -0.000000 0.274000 0.000000
vt -0.000000 -0.274000 0.000000
vt 0.070804 -0.264694 0.000000
vt 0.070804 0.264694 0.000000
vt 0.136798 -0.237407 0.000000
vt 0.136798 0.237407 0.000000
vt 0.193500 -0.193994 0.000000
vt 0.193500 0.193994 0.000000
vt -1.600000 2.221555 0.000000
vt -0.000000 2.221555 0.000000
vt -1.600000 2.356194 0.000000
vt -0.000000 2.356194 0.000000
vt -1.600000 -2.356194 0.000000
vt -0.000000 -2.356194 0.000000
vt -1.600000 -2.221555 0.000000
vt -0.000000 -2.221555 0.000000
vt -1.600000 -2.086915 0.000000
vt -0.000000 -2.086915 0.000000
vt -1.600000 -1.952275 0.000000
vt -0.000000 -1.952275 0.000000
vt -1.600000 -1.817636 0.000000
vt -0.000000 -1.817636 0.000000
vt -1.600000 -1.682996 0.000000
vt -0.000000 -1.682996 0.000000
vt -1.600000 -1.548356 0.000000
vt -0.000000 -1.548356 0.000000
vt -1.600000 -1.413717 0.000000
vt -0.000000 -1.413717 0.000000
vt -1.600000 -1.279077 0.000000
vt -0.000000 -1.279077 0.000000
vt -1.600000 -1.144437 0.000000
vt -0.000000 -1.144437 0.000000
vt -1.600000 -1.009798 0.000000
vt -0.000000 -1.009798 0.000000
vt -1.600000 -0.875158 0.000000
vt -0.000000 -0.875158 0.000000
vt -1.600000 -0.740518 0.000000
vt -0.000000 -0.740518 0.000000
vt -1.600000 -0.605879 0.000000
vt -0.000000 -0.605879 0.000000
vt -1.600000 -0.471239 0.000000
vt -0.000000 -0.471239 0.000000
vt -1.600000 -0.336599 0.000000
vt -0.000000 -0.336599 0.000000
vt -1.600000 -0.201960 0.000000
vt -0.000000 -0.201960 0.000000
vt -1.600000 -0.067320 0.000000
vt -0.000000 -0.067320 0.000000
vt -1.600000 0.067320 0.000000
vt -0.000000 0.067320 0.000000
vt -1.600000 0.201960 0.000000
vt -0.000000 0.201960 0.000000
vt -1.600000 0.336599 0.000000
vt -0.000000 0.336599 0.000000
vt -1.600000 0.471239 0.000000
vt -0.000000 0.471239 0.000000
vt -1.600000 0.605879 0.000000
vt -0.000000 0.605879 0.000000
vt -1.600000 0.740518 0.000000
vt -0.000000 0.740518 0.000000
vt -1.600000 0.875158 0.000000
vt -0.000000 0.875158 0.000000
vt -1.600000 1.009798 0.000000
vt -0.000000 1.009798 0.000000
vt -1.600000 1.144437 0.000000
vt -0.000000 1.144437 0.000000
vt -1.600000 1.279077 0.000000
vt -0.000000 1.279077 0.000000
vt -1.600000 1.413717 0.000000
vt -0.000000 1.413717 0.000000
vt -1.600000 1.548356 0.000000
vt -0.000000 1.548356 0.000000
vt -1.600000 1.682996 0.000000
vt -0.000000 1.682996 0.000000
vt -1.600000 1.817636 0.000000
vt -0.000000 1.817636 0.000000
vt -1.600000 1.952275 0.000000
vt -0.000000 1.952275 0.000000
vt -1.600000 2.086915 0.000000
vt -0.000000 2.086915 0.000000
vt 0.050000 -0.250050 0.000000
vt 0.050000 -0.500000 0.000000
vt 0.110244 -0.229938 0.000000
vt 0.163649 -0.195561 0.000000
vt 0.413173 -0.625930 0.000000
vt 0.518297 -0.542096 0.000000
vt -0.050000 -0.500000 0.000000
vt 0.033649 -0.749245 0.000000
vt 0.166891 -0.731196 0.000000
vt 0.294769 -0.689646 0.000000
vt -0.050000 -0.250050 0.000000
vt -0.110244 -0.229938 0.000000
vt -0.163649 -0.195561 0.000000
vt -0.355401 -0.660447 0.000000
vt -0.467617 -0.586374 0.000000
vt -0.564804 -0.493454 0.000000
vt -0.206901 -0.149053 0.000000
vt -0.643837 -0.384674 0.000000
vt -0.237319 -0.093298 0.000000
vt -0.702176 -0.263531 0.000000
vt -0.737947 -0.133918 0.000000
vt -0.253015 -0.031756 0.000000
vt -0.750000 -0.000000 0.000000
vt -0.253015 0.031756 0.000000
vt -0.737947 0.133918 0.000000
vt -0.237319 0.093298 0.000000
vt -0.702176 0.263531 0.000000
vt -0.643837 0.384674 0.000000
vt -0.206901 0.149053 0.000000
vt -0.564804 0.493454 0.000000
vt -0.163649 0.195561 0.000000
vt -0.467617 0.586374 0.000000
vt -0.355401 0.660447 0.000000
vt -0.050000 0.500000 0.000000
vt -0.231763 0.713292 0.000000
vt -0.100675 0.743212 0.000000
vt 0.033649 0.749245 0.000000
vt 0.050000 0.500000 0.000000
vt 0.166891 0.731196 0.000000
vt 0.294769 0.689646 0.000000
vt 0.413173 0.625930 0.000000
vt 0.163649 0.195561 0.000000
vt 0.518297 0.542096 0.000000
vt 0.206901 0.149053 0.000000
vt 0.606763 0.440839 0.000000
vt 0.675727 0.325413 0.000000
vt 0.237319 0.093298 0.000000
vt 0.722972 0.199528 0.000000
vt 0.253015 0.031756 0.000000
vt 0.746981 0.067229 0.000000
vt 0.746981 -0.067229 0.000000
vt 0.253015 -0.031756 0.000000
vt 0.722972 -0.199528 0.000000
vt 0.237319 -0.093298 0.000000
vt 0.675727 -0.325413 0.000000
vt 0.206901 -0.149053 0.000000
vt 0.606763 -0.440839 0.000000
vt -0.110244 0.229938 0.000000
vt -0.050000 0.250050 0.000000
vt 0.050000 0.250050 0.000000
vt 0.110244 0.229938 0.000000
vt -0.231763 -0.713292 0.000000
vt -0.100675 -0.743212 0.000000
vt 0.136798 -0.237407 0.000000
vt 0.467617 -0.586374 0.000000
vt 0.193500 -0.193994 0.000000
vt 0.564804 -0.493454 0.000000
vt 0.643837 -0.384674 0.000000
vt 0.070804 -0.264694 0.000000
vt 0.231763 -0.713292 0.000000
vt 0.355401 -0.660447 0.000000
vt 0.100675 -0.743212 0.000000
vt -0.000000 -0.274000 0.000000
vt -0.033649 -0.749245 0.000000
vt -0.070804 -0.264694 0.000000
vt -0.166891 -0.731196 0.000000
vt -0.294769 -0.689646 0.000000
vt -0.136798 -0.237407 0.000000
vt -0.413173 -0.625930 0.000000
vt -0.193500 -0.193994 0.000000
vt -0.518297 -0.542096 0.000000
vt -0.606763 -0.440839 0.000000
vt -0.675727 -0.325413 0.000000
vt -0.722972 -0.199528 0.000000
vt -0.746981 -0.067229 0.000000
vt -0.746981 0.067229 0.000000
vt -0.193500 0.193994 0.000000
vt -0.722972 0.199528 0.000000
vt -0.675727 0.325413 0.000000
vt -0.606763 0.440839 0.000000
vt -0.518297 0.542096 0.000000
vt -0.413173 0.625930 0.000000
vt -0.136798 0.237407 0.000000
vt -0.294769 0.689646 0.000000
vt -0.070804 0.264694 0.000000
vt -0.166891 0.731196 0.000000
vt -0.033649 0.749245 0.000000
vt -0.000000 0.274000 0.000000
vt 0.100675 0.743212 0.000000
vt 0.070804 0.264694 0.000000
vt 0.231763 0.713292 0.000000
vt 0.136798 0.237407 0.000000
vt 0.355401 0.660447 0.000000
vt 0.467617 0.586374 0.000000
vt 0.193500 0.193994 0.000000
vt 0.564804 0.493454 0.000000
vt 0.643837 0.384674 0.000000
vt 0.702176 0.263531 0.000000
vt 0.737947 0.133918 0.000000
vt 0.750000 -0.000000 0.000000
vt 0.737947 -0.133918 0.000000
vt 0.702176 -0.263531 0.000000
vn 1.000000 0.000000 -0.000000
vn 1.000000 0.000000 -0.000000
vn 1.000000 0.000000 -0.000000
vn 1.000000 0.000000 -0.000000
vn 0.000000 -1.000000 0.000000
vn 0.000000 -1.000000 0.000000
vn 0.000000 -1.000000 0.000000
vn 0.000000 -1.000000 0.000000
vn -1.000000 0.000000 0.000000
vn -1.000000 0.000000 0.000000
vn -1.000000 0.000000 0.000000
vn -1.000000 0.000000 0.000000
vn -0.196078 0.980588 -0.000000
vn -0.196078 0.980588 -0.000000
vn -0.432328 0.901716 -0.000000
vn -0.432328 0.901716 -0.000000
vn -0.641759 0.766906 -0.000000
vn -0.641759 0.766906 -0.000000
vn -0.811378 0.584522 -0.000000
vn -0.811378 0.584522 -0.000000
vn -0.930663 0.365876 -0.000000
vn -0.930663 0.365876 -0.000000
vn -0.992215 0.124534 -0.000000
vn -0.992215 0.124534 -0.000000
vn -0.992215 -0.124534 0.000000
vn -0.992215 -0.124534 0.000000
vn -0.930663 -0.365876 0.000000
vn -0.930663 -0.365876 0.000000
vn -0.811378 -0.584522 0.000000
vn -0.811378 -0.584522 0.000000
vn -0.641759 -0.766906 0.000000
vn -0.641759 -0.766906 0.000000
vn -0.432328 -0.901716 0.000000
vn -0.432328 -0.901716 0.000000
vn -0.196078 -0.980588 0.000000
vn -0.196078 -0.980588 0.000000
vn -1.000000 0.000000 0.000000
vn -1.000000 0.000000 0.000000
vn -1.000000 0.000000 0.000000
vn -1.000000 0.000000 0.000000
vn 0.000000 1.000000 0.000000
vn 0.000000 1.000000 0.000000
vn 0.000000 1.000000 0.000000
vn 0.000000 1.000000 0.000000
vn 1.000000 0.000000 -0.000000
vn 1.000000 0.000000 -0.000000
vn 1.000000 0.000000 -0.000000
vn 1.000000 0.000000 -0.000000
vn 0.196078 -0.980588 -0.000000
vn 0.196078 -0.980588 -0.000000
vn 0.432328 -0.901716 -0.000000
vn 0.432328 -0.901716 -0.000000
vn 0.641759 -0.766906 -0.000000
vn 0.641759 -0.766906 -0.000000
vn 0.811378 -0.584522 -0.000000
vn 0.811378 -0.584522 -0.000000
vn 0.930663 -0.365876 -0.000000
vn 0.930663 -0.365876 -0.000000
vn 0.992215 -0.124534 -0.000000
vn 0.992215 -0.124534 -0.000000
vn 0.992215 0.124534 -0.000000
vn 0.992215 0.124534 -0.000000
vn 0.930663 0.365876 -0.000000
vn 0.930663 0.365876 -0.000000
vn 0.811378 0.584522 -0.000000
vn 0.811378 0.584522 -0.000000
vn 0.641759 0.766906 -0.000000
vn 0.641759 0.766906 -0.000000
vn 0.432328 0.901716 -0.000000
vn 0.432328 0.901716 -0.000000
vn 0.196078 0.980588 -0.000000
vn 0.196078 0.980588 -0.000000
vn 0.000000 0.000000 1.000000
vn 0.000000 0.000000 1.000000
vn 0.000000 0.000000 1.000000
vn 0.000000 0.000000 1.000000
vn 0.000000 0.000000 1.000000
vn 0.000000 0.000000 1.000000
vn 0.000000 0.000000 1.000000
vn 0.000000 0.000000 1.000000
vn 0.000000 0.000000 1.000000
vn 0.000000 0.000000 1.000000
vn 0.000000 0.000000 1.000000
vn 0.000000 0.000000 1.000000
vn 0.000000 0.000000 1.000000
vn 0.000000 0.000000 1.000000
vn 0.000000 0.000000 1.000000
vn 0.000000 0.000000 1.000000
vn 0.000000 0.000000 1.000000
vn 0.000000 0.000000 1.000000
vn 0.000000 0.000000 1.000000
vn 0.000000 0.000000 1.000000
vn 0.000000 0.000000 1.000000
vn 0.000000 0.000000 1.000000
vn 0.000000 0.000000 1.000000
vn 0.000000 0.000000 1.000000
vn 0.000000 0.000000 1.000000
vn 0.000000 0.000000 1.000000
vn 0.000000 0.000000 1.000000
vn 0.000000 0.000000 1.000000
vn -0.706204 0.708008 0.000000
vn -0.706204 0.708008 0.000000
vn -0.499263 0.866450 0.000000
vn -0.499263 0.866450 0.000000
vn -0.258408 0.966036 0.000000
vn -0.258408 0.966036 0.000000
vn -0.000000 1.000000 0.000000
vn -0.000000 1.000000 0.000000
vn 0.258408 0.966036 -0.000000
vn 0.258408 0.966036 -0.000000
vn 0.499263 0.866450 -0.000000
vn 0.499263 0.866450 -0.000000
vn 0.706204 0.708008 -0.000000
vn 0.706204 0.708008 -0.000000
vn 1.000000 -0.000000 -0.000000
vn 1.000000 -0.000000 -0.000000
vn 1.000000 -0.000000 -0.000000
vn 1.000000 -0.000000 -0.000000
vn 0.706204 -0.708008 0.000000
vn 0.706204 -0.708008 0.000000
vn 0.499263 -0.866450 0.000000
vn 0.499263 -0.866450 0.000000
vn 0.258408 -0.966036 0.000000
vn 0.258408 -0.966036 0.000000
vn -0.000000 -1.000000 0.000000
vn -0.000000 -1.000000 0.000000
vn -0.258408 -0.966036 0.000000
vn -0.258408 -0.966036 0.000000
vn -0.499263 -0.866450 0.000000
vn -0.499263 -0.866450 0.000000
vn -0.706204 -0.708008 0.000000
vn -0.706204 -0.708008 0.000000
vn -1.000000 0.000000 -0.000000
vn -1.000000 0.000000 -0.000000
vn -1.000000 0.000000 -0.000000
vn -1.000000 0.000000 -0.000000
vn -0.000000 -0.000000 -1.000000
vn -0.000000 -0.000000 -1.000000
vn -0.000000 -0.000000 -1.000000
vn -0.000000 -0.000000 -1.000000
vn -0.000000 -0.000000 -1.000000
vn -0.000000 -0.000000 -1.000000
vn -0.000000 -0.000000 -1.000000
vn -0.000000 -0.000000 -1.000000
vn -0.000000 -0.000000 -1.000000
vn -0.000000 -0.000000 -1.000000
vn -0.000000 -0.000000 -1.000000
vn -0.000000 -0.000000 -1.000000
vn -0.000000 -0.000000 -1.000000
vn -0.000000 -0.000000 -1.000000
vn -0.983930 0.178557 -0.000000
vn -0.983930 0.178557 -0.000000
vn -1.000000 0.000000 -0.000000
vn -1.000000 0.000000 -0.000000
vn -0.983930 -0.178557 0.000000
vn -0.983930 -0.178557 0.000000
vn -0.936235 -0.351375 0.000000
vn -0.936235 -0.351375 0.000000
vn -0.858449 -0.512899 0.000000
vn -0.858449 -0.512899 0.000000
vn -0.753071 -0.657939 0.000000
vn -0.753071 -0.657939 0.000000
vn -0.623490 -0.781831 0.000000
vn -0.623490 -0.781831 0.000000
vn -0.473869 -0.880596 0.000000
vn -0.473869 -0.880596 0.000000
vn -0.309017 -0.951057 0.000000
vn -0.309017 -0.951057 0.000000
vn -0.134233 -0.990950 0.000000
vn -0.134233 -0.990950 0.000000
vn 0.044865 -0.998993 -0.000000
vn 0.044865 -0.998993 -0.000000
vn 0.222521 -0.974928 -0.000000
vn 0.222521 -0.974928 -0.000000
vn 0.393025 -0.919528 -0.000000
vn 0.393025 -0.919528 -0.000000
vn 0.550897 -0.834573 -0.000000
vn 0.550897 -0.834573 -0.000000
vn 0.691063 -0.722795 -0.000000
vn 0.691063 -0.722795 -0.000000
vn 0.809017 -0.587785 -0.000000
vn 0.809017 -0.587785 -0.000000
vn 0.900969 -0.433884 -0.000000
vn 0.900969 -0.433884 -0.000000
vn 0.963963 -0.266037 -0.000000
vn 0.963963 -0.266037 -0.000000
vn 0.995974 -0.089639 -0.000000
vn 0.995974 -0.089639 -0.000000
vn 0.995974 0.089639 -0.000000
vn 0.995974 0.089639 -0.000000
vn 0.963963 0.266037 -0.000000
vn 0.963963 0.266037 -0.000000
vn 0.900969 0.433884 -0.000000
vn 0.900969 0.433884 -0.000000
vn 0.809017 0.587785 -0.000000
vn 0.809017 0.587785 -0.000000
vn 0.691063 0.722795 -0.000000
vn 0.691063 0.722795 -0.000000
vn 0.550897 0.834573 -0.000000
vn 0.550897 0.834573 -0.000000
vn 0.393025 0.919528 -0.000000
vn 0.393025 0.919528 -0.000000
vn 0.222521 0.974928 -0.000000
vn 0.222521 0.974928 -0.000000
vn 0.044865 0.998993 -0.000000
vn 0.044865 0.998993 -0.000000
vn -0.134233 0.990950 -0.000000
vn -0.134233 0.990950 -0.000000
vn -0.309017 0.951057 -0.000000
vn -0.309017 0.951057 -0.000000
vn -0.473869 0.880596 -0.000000
vn -0.473869 0.880596 -0.000000
vn -0.623490 0.781831 -0.000000
vn -0.623490 0.781831 -0.000000
vn -0.753071 0.657939 -0.000000
vn -0.753071 0.657939 -0.000000
vn -0.858449 0.512899 -0.000000
vn -0.858449 0.512899 -0.000000
vn -0.936235 0.351375 -0.000000
vn -0.936235 0.351375 -0.000000
vn 0.000000 0.000000 1.000000
vn 0.000000 0.000000 1.000000
vn 0.000000 0.000000 1.000000
vn 0.000000 0.000000 1.000000
vn 0.000000 0.000000 1.000000
vn 0.000000 0.000000 1.000000
vn 0.000000 0.000000 1.000000
vn 0.000000 0.000000 1.000000
vn 0.000000 0.000000 1.000000
vn 0.000000 0.000000 1.000000
vn 0.000000 0.000000 1.000000
vn 0.000000 0.000000 1.000000
vn 0.000000 0.000000 1.000000
vn 0.000000 0.000000 1.000000
vn 0.000000 0.000000 1.000000
vn 0.000000 0.000000 1.000000
vn 0.000000 0.000000 1.000000
vn 0.000000 0.000000 1.000000
vn 0.000000 0.000000 1.000000
vn 0.000000 0.000000 1.000000
vn 0.000000 0.000000 1.000000
vn 0.000000 0.000000 1.000000
vn 0.000000 0.000000 1.000000
vn 0.000000 0.000000 1.000000
vn 0.000000 0.000000 1.000000
vn 0.000000 0.000000 1.000000
vn 0.000000 0.000000 1.000000
vn 0.000000 0.000000 1.000000
vn 0.000000 0.000000 1.000000
vn 0.000000 0.000000 1.000000
vn 0.000000 0.000000 1.000000
vn 0.000000 0.000000 1.000000
vn 0.000000 0.000000 1.000000
vn 0.000000 0.000000 1.000000
vn 0.000000 0.000000 1.000000
vn 0.000000 0.000000 1.000000
vn 0.000000 0.000000 1.000000
vn 0.000000 0.000000 1.000000
vn 0.000000 0.000000 1.000000
vn 0.000000 0.000000 1.000000
vn 0.000000 0.000000 1.000000
vn 0.000000 0.000000 1.000000
vn 0.000000 0.000000 1.000000
vn 0.000000 0.000000 1.000000
vn 0.000000 0.000000 1.000000
vn 0.000000 0.000000 1.000000
vn 0.000000 0.000000 1.000000
vn 0.000000 0.000000 1.000000
vn 0.000000 0.000000 1.000000
vn 0.000000 0.000000 1.000000
vn 0.000000 0.000000 1.000000
vn 0.000000 0.000000 1.000000
vn 0.000000 0.000000 1.000000
vn 0.000000 0.000000 1.000000
vn 0.000000 0.000000 1.000000
vn 0.000000 0.000000 1.000000
vn 0.000000 0.000000 1.000000
vn 0.000000 0.000000 1.000000
vn 0.000000 0.000000 1.000000
vn 0.000000 0.000000 1.000000
vn 0.000000 0.000000 1.000000
vn 0.000000 0.000000 1.000000
vn 0.000000 0.000000 1.000000
vn -0.000000 -0.000000 -1.000000
vn -0.000000 -0.000000 -1.000000
vn -0.000000 -0.000000 -1.000000
vn -0.000000 -0.000000 -1.000000
vn -0.000000 -0.000000 -1.000000
vn -0.000000 -0.000000 -1.000000
vn -0.000000 -0.000000 -1.000000
vn -0.000000 -0.000000 -1.000000
vn -0.000000 -0.000000 -1.000000
vn -0.000000 -0.000000 -1.000000
vn -0.000000 -0.000000 -1.000000
vn -0.000000 -0.000000 -1.000000
vn -0.000000 -0.000000 -1.000000
vn -0.000000 -0.000000 -1.000000
vn -0.000000 -0.000000 -1.000000
vn -0.000000 -0.000000 -1.000000
vn -0.000000 -0.000000 -1.000000
vn -0.000000 -0.000000 -1.000000
vn -0.000000 -0.000000 -1.000000
vn -0.000000 -0.000000 -1.000000
vn -0.000000 -0.000000 -1.000000
vn -0.000000 -0.000000 -1.000000
vn -0.000000 -0.000000 -1.000000
vn -0.000000 -0.000000 -1.000000
vn -0.000000 -0.000000 -1.000000
vn -0.000000 -0.000000 -1.000000
vn -0.000000 -0.000000 -1.000000
vn -0.000000 -0.000000 -1.000000
vn -0.000000 -0.000000 -1.000000
vn -0.000000 -0.000000 -1.000000
vn -0.000000 -0.000000 -1.000000
vn -0.000000 -0.000000 -1.000000
vn -0.000000 -0.000000 -1.000000
vn -0.000000 -0.000000 -1.000000
vn -0.000000 -0.000000 -1.000000
vn -0.000000 -0.000000 -1.000000
vn -0.000000 -0.000000 -1.000000
vn -0.000000 -0.000000 -1.000000
vn -0.000000 -0.000000 -1.000000
vn -0.000000 -0.000000 -1.000000
vn -0.000000 -0.000000 -1.000000
vn -0.000000 -0.000000 -1.000000
vn -0.000000 -0.000000 -1.000000
vn -0.000000 -0.000000 -1.000000
vn -0.000000 -0.000000 -1.000000
vn -0.000000 -0.000000 -1.000000
vn -0.000000 -0.000000 -1.000000
vn -0.000000 -0.000000 -1.000000
vn -0.000000 -0.000000 -1.000000
usemtl Acier_-_Satiné
f 1/1/1 2/2/2 4/3/3
f 4/3/3 2/2/2 3/4/4
f 5/5/5 1/6/6 6/7/7
f 6/7/7 1/6/6 4/8/8
f 7/9/9 5/10/10 8/11/11
f 8/11/11 5/10/10 6/12/12
f 30/13/13 9/14/14 29/15/15
f 29/15/15 9/14/14 10/16/16
f 29/15/15 10/16/16 28/17/17
f 28/17/17 10/16/16 11/18/18
f 28/17/17 11/18/18 27/19/19
f 27/19/19 11/18/18 12/20/20
f 27/19/19 12/20/20 26/21/21
f 26/21/21 12/20/20 13/22/22
f 26/21/21 13/22/22 25/23/23
f 25/23/23 13/22/22 14/24/24
f 25/23/23 14/24/24 24/25/25
f 24/25/25 14/24/24 15/26/26
f 24/25/25 15/26/26 23/27/27
f 23/27/27 15/26/26 16/28/28
f 23/27/27 16/28/28 22/29/29
f 22/29/29 16/28/28 17/30/30
f 22/29/29 17/30/30 21/31/31
f 21/31/31 17/30/30 18/32/32
f 21/31/31 18/32/32 20/33/33
f 20/33/33 18/32/32 19/34/34
f 20/33/33 19/34/34 8/35/35
f 8/35/35 19/34/34 7/36/36
f 31/37/37 9/38/38 32/39/39
f 32/39/39 9/38/38 30/40/40
f 33/41/41 31/42/42 34/43/43
f 34/43/43 31/42/42 32/44/44
f 35/45/45 33/46/46 36/47/47
f 36/47/47 33/46/46 34/48/48
f 3/49/49 2/50/50 56/51/51
f 56/51/51 2/50/50 37/52/52
f 56/51/51 37/52/52 55/53/53
f 55/53/53 37/52/52 38/54/54
f 55/53/53 38/54/54 54/55/55
f 54/55/55 38/54/54 39/56/56
f 54/55/55 39/56/56 53/57/57
f 53/57/57 39/56/56 40/58/58
f 53/57/57 40/58/58 52/59/59
f 52/59/59 40/58/58 41/60/60
f 52/59/59 41/60/60 51/61/61
f 51/61/61 41/60/60 42/62/62
f 51/61/61 42/62/62 50/63/63
f 50/63/63 42/62/62 43/64/64
f 50/63/63 43/64/64 49/65/65
f 49/65/65 43/64/64 44/66/66
f 49/65/65 44/66/66 48/67/67
f 48/67/67 44/66/66 45/68/68
f 48/67/67 45/68/68 47/69/69
f 47/69/69 45/68/68 46/70/70
f 47/69/69 46/70/70 36/71/71
f 36/71/71 46/70/70 35/72/72
f 56/73/73 47/74/74 3/75/75
f 3/75/75 47/74/74 36/76/76
f 3/75/75 36/76/76 30/77/77
f 30/77/77 36/76/76 32/78/78
f 32/78/78 36/76/76 34/79/79
f 47/74/74 56/73/73 48/80/80
f 48/80/80 56/73/73 55/81/81
f 48/80/80 55/81/81 49/82/82
f 49/82/82 55/81/81 54/83/83
f 49/82/82 54/83/83 50/84/84
f 50/84/84 54/83/83 53/85/85
f 50/84/84 53/85/85 51/86/86
f 51/86/86 53/85/85 52/87/87
f 3/75/75 30/77/77 8/88/88
f 8/88/88 30/77/77 29/89/89
f 8/88/88 29/89/89 20/90/90
f 20/90/90 29/89/89 28/91/91
f 20/90/90 28/91/91 21/92/92
f 21/92/92 28/91/91 27/93/93
f 21/92/92 27/93/93 22/94/94
f 22/94/94 27/93/93 26/95/95
f 22/94/94 26/95/95 23/96/96
f 23/96/96 26/95/95 25/97/97
f 23/96/96 25/97/97 24/98/98
f 6/99/99 4/100/100 8/88/88
f 8/88/88 4/100/100 3/75/75
f 70/101/101 57/102/102 69/103/103
f 69/103/103 57/102/102 58/104/104
f 69/103/103 58/104/104 68/105/105
f 68/105/105 58/104/104 59/106/106
f 68/105/105 59/106/106 67/107/107
f 67/107/107 59/106/106 60/108/108
f 67/107/107 60/108/108 66/109/109
f 66/109/109 60/108/108 61/110/110
f 66/109/109 61/110/110 65/111/111
f 65/111/111 61/110/110 62/112/112
f 65/111/111 62/112/112 64/113/113
f 64/113/113 62/112/112 63/114/114
f 63/115/115 71/116/116 64/117/117
f 64/117/117 71/116/116 72/118/118
f 72/119/119 71/120/120 84/121/121
f 84/121/121 71/120/120 73/122/122
f 84/121/121 73/122/122 83/123/123
f 83/123/123 73/122/122 74/124/124
f 83/123/123 74/124/124 82/125/125
f 82/125/125 74/124/124 75/126/126
f 82/125/125 75/126/126 81/127/127
f 81/127/127 75/126/126 76/128/128
f 81/127/127 76/128/128 80/129/129
f 80/129/129 76/128/128 77/130/130
f 80/129/129 77/130/130 79/131/131
f 79/131/131 77/130/130 78/132/132
f 78/133/133 57/134/134 79/135/135
f 79/135/135 57/134/134 70/136/136
f 79/137/137 70/138/138 80/139/139
f 80/139/139 70/138/138 69/140/140
f 80/139/139 69/140/140 81/141/141
f 81/141/141 69/140/140 68/142/142
f 81/141/141 68/142/142 82/143/143
f 82/143/143 68/142/142 67/144/144
f 82/143/143 67/144/144 66/145/145
f 82/143/143 66/145/145 83/146/146
f 83/146/146 66/145/145 65/147/147
f 83/146/146 65/147/147 84/148/148
f 84/148/148 65/147/147 64/149/149
f 84/148/148 64/149/149 72/150/150
f 86/151/151 154/152/152 85/153/153
f 85/153/153 154/152/152 120/154/154
f 85/155/153 120/156/154 119/157/155
f 119/157/155 120/156/154 121/158/156
f 119/157/155 121/158/156 118/159/157
f 118/159/157 121/158/156 122/160/158
f 118/159/157 122/160/158 117/161/159
f 117/161/159 122/160/158 123/162/160
f 117/161/159 123/162/160 116/163/161
f 116/163/161 123/162/160 124/164/162
f 116/163/161 124/164/162 115/165/163
f 115/165/163 124/164/162 125/166/164
f 115/165/163 125/166/164 114/167/165
f 114/167/165 125/166/164 126/168/166
f 114/167/165 126/168/166 113/169/167
f 113/169/167 126/168/166 127/170/168
f 113/169/167 127/170/168 112/171/169
f 112/171/169 127/170/168 128/172/170
f 112/171/169 128/172/170 111/173/171
f 111/173/171 128/172/170 129/174/172
f 111/173/171 129/174/172 110/175/173
f 110/175/173 129/174/172 130/176/174
f 110/175/173 130/176/174 109/177/175
f 109/177/175 130/176/174 131/178/176
f 109/177/175 131/178/176 108/179/177
f 108/179/177 131/178/176 132/180/178
f 108/179/177 132/180/178 107/181/179
f 107/181/179 132/180/178 133/182/180
f 107/181/179 133/182/180 106/183/181
f 106/183/181 133/182/180 134/184/182
f 106/183/181 134/184/182 105/185/183
f 105/185/183 134/184/182 135/186/184
f 105/185/183 135/186/184 104/187/185
f 104/187/185 135/186/184 136/188/186
f 104/187/185 136/188/186 103/189/187
f 103/189/187 136/188/186 137/190/188
f 103/189/187 137/190/188 102/191/189
f 102/191/189 137/190/188 138/192/190
f 102/191/189 138/192/190 101/193/191
f 101/193/191 138/192/190 139/194/192
f 101/193/191 139/194/192 100/195/193
f 100/195/193 139/194/192 140/196/194
f 100/195/193 140/196/194 99/197/195
f 99/197/195 140/196/194 141/198/196
f 99/197/195 141/198/196 98/199/197
f 98/199/197 141/198/196 142/200/198
f 98/199/197 142/200/198 97/201/199
f 97/201/199 142/200/198 143/202/200
f 97/201/199 143/202/200 96/203/201
f 96/203/201 143/202/200 144/204/202
f 96/203/201 144/204/202 95/205/203
f 95/205/203 144/204/202 145/206/204
f 95/205/203 145/206/204 94/207/205
f 94/207/205 145/206/204 146/208/206
f 94/207/205 146/208/206 93/209/207
f 93/209/207 146/208/206 147/210/208
f 93/209/207 147/210/208 92/211/209
f 92/211/209 147/210/208 148/212/210
f 92/211/209 148/212/210 91/213/211
f 91/213/211 148/212/210 149/214/212
f 91/213/211 149/214/212 90/215/213
f 90/215/213 149/214/212 150/216/214
f 90/215/213 150/216/214 89/217/215
f 89/217/215 150/216/214 151/218/216
f 89/217/215 151/218/216 88/219/217
f 88/219/217 151/218/216 152/220/218
f 88/219/217 152/220/218 87/221/219
f 87/221/219 152/220/218 153/222/220
f 87/221/219 153/222/220 86/151/151
f 86/151/151 153/222/220 154/152/152
f 2/223/221 1/224/222 37/225/223
f 37/225/223 1/224/222 38/226/224
f 38/226/224 1/224/222 108/227/225
f 38/226/224 108/227/225 107/228/226
f 5/229/227 111/230/228 1/224/222
f 1/224/222 111/230/228 110/231/229
f 1/224/222 110/231/229 109/232/230
f 7/233/231 19/234/232 5/229/227
f 5/229/227 19/234/232 18/235/233
f 5/229/227 18/235/233 114/236/234
f 114/236/234 18/235/233 115/237/235
f 115/237/235 18/235/233 116/238/236
f 116/238/236 18/235/233 17/239/237
f 116/238/236 17/239/237 117/240/238
f 117/240/238 17/239/237 16/241/239
f 117/240/238 16/241/239 118/242/240
f 118/242/240 16/241/239 119/243/241
f 119/243/241 16/241/239 15/244/242
f 119/243/241 15/244/242 85/245/243
f 85/245/243 15/244/242 14/246/244
f 85/245/243 14/246/244 86/247/245
f 86/247/245 14/246/244 13/248/246
f 86/247/245 13/248/246 87/249/247
f 87/249/247 13/248/246 88/250/248
f 88/250/248 13/248/246 12/251/249
f 88/250/248 12/251/249 89/252/250
f 89/252/250 12/251/249 11/253/251
f 89/252/250 11/253/251 90/254/252
f 90/254/252 11/253/251 91/255/253
f 91/255/253 11/253/251 31/256/254
f 91/255/253 31/256/254 92/257/255
f 92/257/255 31/256/254 93/258/256
f 93/258/256 31/256/254 94/259/257
f 94/259/257 31/256/254 33/260/258
f 94/259/257 33/260/258 95/261/259
f 95/261/259 33/260/258 96/262/260
f 96/262/260 33/260/258 97/263/261
f 97/263/261 33/260/258 45/264/262
f 97/263/261 45/264/262 98/265/263
f 98/265/263 45/264/262 44/266/264
f 98/265/263 44/266/264 99/267/265
f 99/267/265 44/266/264 100/268/266
f 100/268/266 44/266/264 43/269/267
f 100/268/266 43/269/267 101/270/268
f 101/270/268 43/269/267 42/271/269
f 101/270/268 42/271/269 102/272/270
f 102/272/270 42/271/269 103/273/271
f 103/273/271 42/271/269 41/274/272
f 103/273/271 41/274/272 104/275/273
f 104/275/273 41/274/272 40/276/274
f 104/275/273 40/276/274 105/277/275
f 105/277/275 40/276/274 39/278/276
f 105/277/275 39/278/276 106/279/277
f 106/279/277 39/278/276 107/228/226
f 107/228/226 39/278/276 38/226/224
f 11/253/251 10/280/278 31/256/254
f 31/256/254 10/280/278 9/281/279
f 35/282/280 46/283/281 33/260/258
f 33/260/258 46/283/281 45/264/262
f 114/236/234 113/284/282 5/229/227
f 5/229/227 113/284/282 112/285/283
f 5/229/227 112/285/283 111/230/228
f 109/232/230 108/227/225 1/224/222
f 62/286/284 125/287/285 63/288/286
f 63/288/286 125/287/285 124/289/287
f 63/288/286 124/289/287 123/290/288
f 61/291/289 127/292/290 62/286/284
f 62/286/284 127/292/290 126/293/291
f 62/286/284 126/293/291 125/287/285
f 127/292/290 61/291/289 128/294/292
f 128/294/292 61/291/289 60/295/293
f 128/294/292 60/295/293 129/296/294
f 129/296/294 60/295/293 59/297/295
f 129/296/294 59/297/295 130/298/296
f 130/298/296 59/297/295 131/299/297
f 131/299/297 59/297/295 58/300/298
f 131/299/297 58/300/298 132/301/299
f 132/301/299 58/300/298 57/302/300
f 132/301/299 57/302/300 133/303/301
f 133/303/301 57/302/300 134/304/302
f 134/304/302 57/302/300 135/305/303
f 135/305/303 57/302/300 136/306/304
f 136/306/304 57/302/300 137/307/305
f 137/307/305 57/302/300 138/308/306
f 138/308/306 57/302/300 78/309/307
f 138/308/306 78/309/307 139/310/308
f 139/310/308 78/309/307 140/311/309
f 140/311/309 78/309/307 141/312/310
f 141/312/310 78/309/307 142/313/311
f 142/313/311 78/309/307 143/314/312
f 143/314/312 78/309/307 77/315/313
f 143/314/312 77/315/313 144/316/314
f 144/316/314 77/315/313 76/317/315
f 144/316/314 76/317/315 145/318/316
f 145/318/316 76/317/315 146/319/317
f 146/319/317 76/317/315 75/320/318
f 146/319/317 75/320/318 147/321/319
f 147/321/319 75/320/318 74/322/320
f 147/321/319 74/322/320 148/323/321
f 148/323/321 74/322/320 73/324/322
f 148/323/321 73/324/322 149/325/323
f 149/325/323 73/324/322 150/326/324
f 150/326/324 73/324/322 71/327/325
f 150/326/324 71/327/325 151/328/326
f 151/328/326 71/327/325 152/329/327
f 152/329/327 71/327/325 153/330/328
f 153/330/328 71/327/325 154/331/329
f 154/331/329 71/327/325 120/332/330
f 120/332/330 71/327/325 63/288/286
f 120/332/330 63/288/286 121/333/331
f 121/333/331 63/288/286 122/334/332
f 122/334/332 63/288/286 123/290/288
# 154 vertices
# 334 texture params
# 332 normals
# 304 facets

# 1 groups
